<svg width="25" height="24" viewBox="0 0 25 24" fill="none" xmlns="http://www.w3.org/2000/svg">
<path d="M11.3446 0.0112093C11.015 -0.041033 10.6846 0.0932934 10.553 0.331644L5.75728 9.0117C4.27879 11.5324 5.6432 14.5507 6.22611 15.6237L0.471672 19.303C0.324678 19.397 0.233279 19.5328 0.218162 19.6796C0.203045 19.8264 0.265602 19.9716 0.391511 20.0823L4.63802 23.8144C4.77268 23.9327 4.96642 24 5.1692 24C5.18114 24 5.19307 23.9997 5.20501 23.9993C5.42072 23.9908 5.61953 23.9068 5.74485 23.7711L11.7692 17.2493C11.8544 17.1571 11.9003 17.0465 11.9004 16.9332L11.9008 16.1554C11.9028 12.8419 11.9099 1.16016 11.9099 0.545216C11.91 0.286306 11.6737 0.0629914 11.3446 0.0112093Z" fill="black"/>
<path d="M24.5018 19.6795C24.4868 19.5327 24.3953 19.3969 24.2483 19.303L18.4937 15.6237C19.0767 14.5507 20.4412 11.5324 18.9626 9.01168L14.1669 0.33162C14.0353 0.0932691 13.7043 -0.0409807 13.3752 0.011185C13.0461 0.062967 12.8098 0.286282 12.8098 0.545346C12.8098 1.16029 12.817 12.842 12.819 16.1555L12.8194 16.9333C12.8195 17.0466 12.8652 17.1571 12.9505 17.2495L18.9749 23.7713C19.1002 23.9069 19.299 23.991 19.5147 23.9994C19.5268 23.9999 19.5387 24.0001 19.5505 24.0001C19.7534 24.0001 19.9472 23.9328 20.0817 23.8145L24.3282 20.0825C24.4543 19.9716 24.5169 19.8264 24.5018 19.6795Z" fill="black"/>
</svg>
